<?xml version="1.0" encoding="UTF-8"?>
<svg width="750px" height="1331px" viewBox="0 0 750 1331" version="1.1" xmlns="http://www.w3.org/2000/svg" xmlns:xlink="http://www.w3.org/1999/xlink">
    <!-- Generator: Sketch 52.5 (67469) - http://www.bohemiancoding.com/sketch -->
    <title>IOS-海外 定稿</title>
    <desc>Created with Sketch.</desc>
    <defs>
        <linearGradient x1="0%" y1="76.3558306%" x2="184.16375%" y2="0%" id="linearGradient-1">
            <stop stop-color="#FFFFFF" offset="0%"></stop>
            <stop stop-color="#006FFE" offset="100%"></stop>
        </linearGradient>
        <linearGradient x1="58.2664956%" y1="81.1790029%" x2="9.26304004%" y2="7.29303872%" id="linearGradient-2">
            <stop stop-color="#0066FF" stop-opacity="0" offset="0%"></stop>
            <stop stop-color="#00FFE7" offset="100%"></stop>
        </linearGradient>
        <linearGradient x1="0%" y1="76.3558306%" x2="190.851192%" y2="0%" id="linearGradient-3">
            <stop stop-color="#FFFFFF" stop-opacity="0" offset="0%"></stop>
            <stop stop-color="#006FFE" offset="100%"></stop>
        </linearGradient>
    </defs>
    <g id="Page-1" stroke="none" stroke-width="1" fill="none" fill-rule="evenodd">
        <g id="IOS-海外-定稿" transform="translate(0.000000, -5562.000000)">
            <rect fill="#FFFFFF" x="0" y="0" width="750" height="7033"></rect>
            <g id="装饰" transform="translate(123.000000, 5517.000000)" fill-rule="nonzero">
                <path d="M154.325225,295.674775 L959.325225,295.674775 L959.325225,1100.67477 L154.325225,1100.67477 L154.325225,295.674775 Z M298.874263,445.821889 L298.874263,959.821889 L812.874263,959.821889 L812.874263,445.821889 L298.874263,445.821889 Z" id="合并形状" fill="#F4F7FD" opacity="0.600000024" transform="translate(556.825225, 698.174775) rotate(-30.000000) translate(-556.825225, -698.174775) "></path>
                <g id="分组-copy" opacity="0.100000001" transform="translate(0.000000, 575.000000)" fill="#787878">
                    <path d="M99,6 C97.3431458,6 96,4.65685425 96,3 C96,1.34314575 97.3431458,0 99,0 C100.656854,0 102,1.34314575 102,3 C102,4.65685425 100.656854,6 99,6 Z M3,6 C1.34314575,6 0,4.65685425 0,3 C0,1.34314575 1.34314575,0 3,0 C4.65685425,0 6,1.34314575 6,3 C6,4.65685425 4.65685425,6 3,6 Z M131,6 C129.343146,6 128,4.65685425 128,3 C128,1.34314575 129.343146,0 131,0 C132.656854,0 134,1.34314575 134,3 C134,4.65685425 132.656854,6 131,6 Z M35,6 C33.3431458,6 32,4.65685425 32,3 C32,1.34314575 33.3431458,0 35,0 C36.6568542,0 38,1.34314575 38,3 C38,4.65685425 36.6568542,6 35,6 Z M195,6 C193.343146,6 192,4.65685425 192,3 C192,1.34314575 193.343146,0 195,0 C196.656854,0 198,1.34314575 198,3 C198,4.65685425 196.656854,6 195,6 Z M163,6 C161.343146,6 160,4.65685425 160,3 C160,1.34314575 161.343146,0 163,0 C164.656854,0 166,1.34314575 166,3 C166,4.65685425 164.656854,6 163,6 Z M67,6 C65.3431458,6 64,4.65685425 64,3 C64,1.34314575 65.3431458,0 67,0 C68.6568542,0 70,1.34314575 70,3 C70,4.65685425 68.6568542,6 67,6 Z M227,6 C225.343146,6 224,4.65685425 224,3 C224,1.34314575 225.343146,0 227,0 C228.656854,0 230,1.34314575 230,3 C230,4.65685425 228.656854,6 227,6 Z M99,70 C97.3431458,70 96,68.6568542 96,67 C96,65.3431458 97.3431458,64 99,64 C100.656854,64 102,65.3431458 102,67 C102,68.6568542 100.656854,70 99,70 Z M99,166 C97.3431458,166 96,164.656854 96,163 C96,161.343146 97.3431458,160 99,160 C100.656854,160 102,161.343146 102,163 C102,164.656854 100.656854,166 99,166 Z M3,70 C1.34314575,70 0,68.6568542 0,67 C0,65.3431458 1.34314575,64 3,64 C4.65685425,64 6,65.3431458 6,67 C6,68.6568542 4.65685425,70 3,70 Z M3,166 C1.34314575,166 0,164.656854 0,163 C0,161.343146 1.34314575,160 3,160 C4.65685425,160 6,161.343146 6,163 C6,164.656854 4.65685425,166 3,166 Z M131,70 C129.343146,70 128,68.6568542 128,67 C128,65.3431458 129.343146,64 131,64 C132.656854,64 134,65.3431458 134,67 C134,68.6568542 132.656854,70 131,70 Z M131,166 C129.343146,166 128,164.656854 128,163 C128,161.343146 129.343146,160 131,160 C132.656854,160 134,161.343146 134,163 C134,164.656854 132.656854,166 131,166 Z M35,70 C33.3431458,70 32,68.6568542 32,67 C32,65.3431458 33.3431458,64 35,64 C36.6568542,64 38,65.3431458 38,67 C38,68.6568542 36.6568542,70 35,70 Z M35,166 C33.3431458,166 32,164.656854 32,163 C32,161.343146 33.3431458,160 35,160 C36.6568542,160 38,161.343146 38,163 C38,164.656854 36.6568542,166 35,166 Z M195,70 C193.343146,70 192,68.6568542 192,67 C192,65.3431458 193.343146,64 195,64 C196.656854,64 198,65.3431458 198,67 C198,68.6568542 196.656854,70 195,70 Z M195,166 C193.343146,166 192,164.656854 192,163 C192,161.343146 193.343146,160 195,160 C196.656854,160 198,161.343146 198,163 C198,164.656854 196.656854,166 195,166 Z M163,70 C161.343146,70 160,68.6568542 160,67 C160,65.3431458 161.343146,64 163,64 C164.656854,64 166,65.3431458 166,67 C166,68.6568542 164.656854,70 163,70 Z M163,166 C161.343146,166 160,164.656854 160,163 C160,161.343146 161.343146,160 163,160 C164.656854,160 166,161.343146 166,163 C166,164.656854 164.656854,166 163,166 Z M67,70 C65.3431458,70 64,68.6568542 64,67 C64,65.3431458 65.3431458,64 67,64 C68.6568542,64 70,65.3431458 70,67 C70,68.6568542 68.6568542,70 67,70 Z M67,166 C65.3431458,166 64,164.656854 64,163 C64,161.343146 65.3431458,160 67,160 C68.6568542,160 70,161.343146 70,163 C70,164.656854 68.6568542,166 67,166 Z M227,70 C225.343146,70 224,68.6568542 224,67 C224,65.3431458 225.343146,64 227,64 C228.656854,64 230,65.3431458 230,67 C230,68.6568542 228.656854,70 227,70 Z M227,166 C225.343146,166 224,164.656854 224,163 C224,161.343146 225.343146,160 227,160 C228.656854,160 230,161.343146 230,163 C230,164.656854 228.656854,166 227,166 Z M99,134 C97.3431458,134 96,132.656854 96,131 C96,129.343146 97.3431458,128 99,128 C100.656854,128 102,129.343146 102,131 C102,132.656854 100.656854,134 99,134 Z M99,230 C97.3431458,230 96,228.656854 96,227 C96,225.343146 97.3431458,224 99,224 C100.656854,224 102,225.343146 102,227 C102,228.656854 100.656854,230 99,230 Z M3,134 C1.34314575,134 0,132.656854 0,131 C0,129.343146 1.34314575,128 3,128 C4.65685425,128 6,129.343146 6,131 C6,132.656854 4.65685425,134 3,134 Z M3,230 C1.34314575,230 0,228.656854 0,227 C0,225.343146 1.34314575,224 3,224 C4.65685425,224 6,225.343146 6,227 C6,228.656854 4.65685425,230 3,230 Z M131,134 C129.343146,134 128,132.656854 128,131 C128,129.343146 129.343146,128 131,128 C132.656854,128 134,129.343146 134,131 C134,132.656854 132.656854,134 131,134 Z M131,230 C129.343146,230 128,228.656854 128,227 C128,225.343146 129.343146,224 131,224 C132.656854,224 134,225.343146 134,227 C134,228.656854 132.656854,230 131,230 Z M35,134 C33.3431458,134 32,132.656854 32,131 C32,129.343146 33.3431458,128 35,128 C36.6568542,128 38,129.343146 38,131 C38,132.656854 36.6568542,134 35,134 Z M35,230 C33.3431458,230 32,228.656854 32,227 C32,225.343146 33.3431458,224 35,224 C36.6568542,224 38,225.343146 38,227 C38,228.656854 36.6568542,230 35,230 Z M195,134 C193.343146,134 192,132.656854 192,131 C192,129.343146 193.343146,128 195,128 C196.656854,128 198,129.343146 198,131 C198,132.656854 196.656854,134 195,134 Z M195,230 C193.343146,230 192,228.656854 192,227 C192,225.343146 193.343146,224 195,224 C196.656854,224 198,225.343146 198,227 C198,228.656854 196.656854,230 195,230 Z M163,134 C161.343146,134 160,132.656854 160,131 C160,129.343146 161.343146,128 163,128 C164.656854,128 166,129.343146 166,131 C166,132.656854 164.656854,134 163,134 Z M163,230 C161.343146,230 160,228.656854 160,227 C160,225.343146 161.343146,224 163,224 C164.656854,224 166,225.343146 166,227 C166,228.656854 164.656854,230 163,230 Z M67,134 C65.3431458,134 64,132.656854 64,131 C64,129.343146 65.3431458,128 67,128 C68.6568542,128 70,129.343146 70,131 C70,132.656854 68.6568542,134 67,134 Z M67,230 C65.3431458,230 64,228.656854 64,227 C64,225.343146 65.3431458,224 67,224 C68.6568542,224 70,225.343146 70,227 C70,228.656854 68.6568542,230 67,230 Z M227,134 C225.343146,134 224,132.656854 224,131 C224,129.343146 225.343146,128 227,128 C228.656854,128 230,129.343146 230,131 C230,132.656854 228.656854,134 227,134 Z M227,230 C225.343146,230 224,228.656854 224,227 C224,225.343146 225.343146,224 227,224 C228.656854,224 230,225.343146 230,227 C230,228.656854 228.656854,230 227,230 Z M99,38 C97.3431458,38 96,36.6568542 96,35 C96,33.3431458 97.3431458,32 99,32 C100.656854,32 102,33.3431458 102,35 C102,36.6568542 100.656854,38 99,38 Z M3,38 C1.34314575,38 0,36.6568542 0,35 C0,33.3431458 1.34314575,32 3,32 C4.65685425,32 6,33.3431458 6,35 C6,36.6568542 4.65685425,38 3,38 Z M131,38 C129.343146,38 128,36.6568542 128,35 C128,33.3431458 129.343146,32 131,32 C132.656854,32 134,33.3431458 134,35 C134,36.6568542 132.656854,38 131,38 Z M35,38 C33.3431458,38 32,36.6568542 32,35 C32,33.3431458 33.3431458,32 35,32 C36.6568542,32 38,33.3431458 38,35 C38,36.6568542 36.6568542,38 35,38 Z M195,38 C193.343146,38 192,36.6568542 192,35 C192,33.3431458 193.343146,32 195,32 C196.656854,32 198,33.3431458 198,35 C198,36.6568542 196.656854,38 195,38 Z M163,38 C161.343146,38 160,36.6568542 160,35 C160,33.3431458 161.343146,32 163,32 C164.656854,32 166,33.3431458 166,35 C166,36.6568542 164.656854,38 163,38 Z M67,38 C65.3431458,38 64,36.6568542 64,35 C64,33.3431458 65.3431458,32 67,32 C68.6568542,32 70,33.3431458 70,35 C70,36.6568542 68.6568542,38 67,38 Z M227,38 C225.343146,38 224,36.6568542 224,35 C224,33.3431458 225.343146,32 227,32 C228.656854,32 230,33.3431458 230,35 C230,36.6568542 228.656854,38 227,38 Z M99,102 C97.3431458,102 96,100.656854 96,99 C96,97.3431458 97.3431458,96 99,96 C100.656854,96 102,97.3431458 102,99 C102,100.656854 100.656854,102 99,102 Z M99,198 C97.3431458,198 96,196.656854 96,195 C96,193.343146 97.3431458,192 99,192 C100.656854,192 102,193.343146 102,195 C102,196.656854 100.656854,198 99,198 Z M3,102 C1.34314575,102 0,100.656854 0,99 C0,97.3431458 1.34314575,96 3,96 C4.65685425,96 6,97.3431458 6,99 C6,100.656854 4.65685425,102 3,102 Z M3,198 C1.34314575,198 0,196.656854 0,195 C0,193.343146 1.34314575,192 3,192 C4.65685425,192 6,193.343146 6,195 C6,196.656854 4.65685425,198 3,198 Z M131,102 C129.343146,102 128,100.656854 128,99 C128,97.3431458 129.343146,96 131,96 C132.656854,96 134,97.3431458 134,99 C134,100.656854 132.656854,102 131,102 Z M131,198 C129.343146,198 128,196.656854 128,195 C128,193.343146 129.343146,192 131,192 C132.656854,192 134,193.343146 134,195 C134,196.656854 132.656854,198 131,198 Z M35,102 C33.3431458,102 32,100.656854 32,99 C32,97.3431458 33.3431458,96 35,96 C36.6568542,96 38,97.3431458 38,99 C38,100.656854 36.6568542,102 35,102 Z M35,198 C33.3431458,198 32,196.656854 32,195 C32,193.343146 33.3431458,192 35,192 C36.6568542,192 38,193.343146 38,195 C38,196.656854 36.6568542,198 35,198 Z M195,102 C193.343146,102 192,100.656854 192,99 C192,97.3431458 193.343146,96 195,96 C196.656854,96 198,97.3431458 198,99 C198,100.656854 196.656854,102 195,102 Z M195,198 C193.343146,198 192,196.656854 192,195 C192,193.343146 193.343146,192 195,192 C196.656854,192 198,193.343146 198,195 C198,196.656854 196.656854,198 195,198 Z M163,102 C161.343146,102 160,100.656854 160,99 C160,97.3431458 161.343146,96 163,96 C164.656854,96 166,97.3431458 166,99 C166,100.656854 164.656854,102 163,102 Z M163,198 C161.343146,198 160,196.656854 160,195 C160,193.343146 161.343146,192 163,192 C164.656854,192 166,193.343146 166,195 C166,196.656854 164.656854,198 163,198 Z M67,102 C65.3431458,102 64,100.656854 64,99 C64,97.3431458 65.3431458,96 67,96 C68.6568542,96 70,97.3431458 70,99 C70,100.656854 68.6568542,102 67,102 Z M67,198 C65.3431458,198 64,196.656854 64,195 C64,193.343146 65.3431458,192 67,192 C68.6568542,192 70,193.343146 70,195 C70,196.656854 68.6568542,198 67,198 Z M227,102 C225.343146,102 224,100.656854 224,99 C224,97.3431458 225.343146,96 227,96 C228.656854,96 230,97.3431458 230,99 C230,100.656854 228.656854,102 227,102 Z M227,198 C225.343146,198 224,196.656854 224,195 C224,193.343146 225.343146,192 227,192 C228.656854,192 230,193.343146 230,195 C230,196.656854 228.656854,198 227,198 Z" id="Combined-Shape"></path>
                </g>
                <circle id="椭圆形" fill="url(#linearGradient-1)" opacity="0.0899999961" cx="524.5" cy="63.5" r="63.5"></circle>
            </g>
            <rect id="矩形" stroke="#C4D8FF" stroke-width="150" opacity="0.160760789" fill-rule="nonzero" transform="translate(718.133537, 5177.133537) rotate(-60.000000) translate(-718.133537, -5177.133537) " x="299.633537" y="4758.63354" width="837" height="837"></rect>
            <polygon id="矩形-copy-2" fill="#0A57EA" fill-rule="nonzero" points="0 5562 750 5562 750 6896 0 6896"></polygon>
            <path d="M587,6458 C585.343146,6458 584,6456.65685 584,6455 C584,6453.34315 585.343146,6452 587,6452 C588.656854,6452 590,6453.34315 590,6455 C590,6456.65685 588.656854,6458 587,6458 Z M491,6458 C489.343146,6458 488,6456.65685 488,6455 C488,6453.34315 489.343146,6452 491,6452 C492.656854,6452 494,6453.34315 494,6455 C494,6456.65685 492.656854,6458 491,6458 Z M619,6458 C617.343146,6458 616,6456.65685 616,6455 C616,6453.34315 617.343146,6452 619,6452 C620.656854,6452 622,6453.34315 622,6455 C622,6456.65685 620.656854,6458 619,6458 Z M523,6458 C521.343146,6458 520,6456.65685 520,6455 C520,6453.34315 521.343146,6452 523,6452 C524.656854,6452 526,6453.34315 526,6455 C526,6456.65685 524.656854,6458 523,6458 Z M683,6458 C681.343146,6458 680,6456.65685 680,6455 C680,6453.34315 681.343146,6452 683,6452 C684.656854,6452 686,6453.34315 686,6455 C686,6456.65685 684.656854,6458 683,6458 Z M651,6458 C649.343146,6458 648,6456.65685 648,6455 C648,6453.34315 649.343146,6452 651,6452 C652.656854,6452 654,6453.34315 654,6455 C654,6456.65685 652.656854,6458 651,6458 Z M555,6458 C553.343146,6458 552,6456.65685 552,6455 C552,6453.34315 553.343146,6452 555,6452 C556.656854,6452 558,6453.34315 558,6455 C558,6456.65685 556.656854,6458 555,6458 Z M715,6458 C713.343146,6458 712,6456.65685 712,6455 C712,6453.34315 713.343146,6452 715,6452 C716.656854,6452 718,6453.34315 718,6455 C718,6456.65685 716.656854,6458 715,6458 Z M587,6522 C585.343146,6522 584,6520.65685 584,6519 C584,6517.34315 585.343146,6516 587,6516 C588.656854,6516 590,6517.34315 590,6519 C590,6520.65685 588.656854,6522 587,6522 Z M587,6618 C585.343146,6618 584,6616.65685 584,6615 C584,6613.34315 585.343146,6612 587,6612 C588.656854,6612 590,6613.34315 590,6615 C590,6616.65685 588.656854,6618 587,6618 Z M491,6522 C489.343146,6522 488,6520.65685 488,6519 C488,6517.34315 489.343146,6516 491,6516 C492.656854,6516 494,6517.34315 494,6519 C494,6520.65685 492.656854,6522 491,6522 Z M491,6618 C489.343146,6618 488,6616.65685 488,6615 C488,6613.34315 489.343146,6612 491,6612 C492.656854,6612 494,6613.34315 494,6615 C494,6616.65685 492.656854,6618 491,6618 Z M619,6522 C617.343146,6522 616,6520.65685 616,6519 C616,6517.34315 617.343146,6516 619,6516 C620.656854,6516 622,6517.34315 622,6519 C622,6520.65685 620.656854,6522 619,6522 Z M619,6618 C617.343146,6618 616,6616.65685 616,6615 C616,6613.34315 617.343146,6612 619,6612 C620.656854,6612 622,6613.34315 622,6615 C622,6616.65685 620.656854,6618 619,6618 Z M523,6522 C521.343146,6522 520,6520.65685 520,6519 C520,6517.34315 521.343146,6516 523,6516 C524.656854,6516 526,6517.34315 526,6519 C526,6520.65685 524.656854,6522 523,6522 Z M523,6618 C521.343146,6618 520,6616.65685 520,6615 C520,6613.34315 521.343146,6612 523,6612 C524.656854,6612 526,6613.34315 526,6615 C526,6616.65685 524.656854,6618 523,6618 Z M683,6522 C681.343146,6522 680,6520.65685 680,6519 C680,6517.34315 681.343146,6516 683,6516 C684.656854,6516 686,6517.34315 686,6519 C686,6520.65685 684.656854,6522 683,6522 Z M683,6618 C681.343146,6618 680,6616.65685 680,6615 C680,6613.34315 681.343146,6612 683,6612 C684.656854,6612 686,6613.34315 686,6615 C686,6616.65685 684.656854,6618 683,6618 Z M651,6522 C649.343146,6522 648,6520.65685 648,6519 C648,6517.34315 649.343146,6516 651,6516 C652.656854,6516 654,6517.34315 654,6519 C654,6520.65685 652.656854,6522 651,6522 Z M651,6618 C649.343146,6618 648,6616.65685 648,6615 C648,6613.34315 649.343146,6612 651,6612 C652.656854,6612 654,6613.34315 654,6615 C654,6616.65685 652.656854,6618 651,6618 Z M555,6522 C553.343146,6522 552,6520.65685 552,6519 C552,6517.34315 553.343146,6516 555,6516 C556.656854,6516 558,6517.34315 558,6519 C558,6520.65685 556.656854,6522 555,6522 Z M555,6618 C553.343146,6618 552,6616.65685 552,6615 C552,6613.34315 553.343146,6612 555,6612 C556.656854,6612 558,6613.34315 558,6615 C558,6616.65685 556.656854,6618 555,6618 Z M715,6522 C713.343146,6522 712,6520.65685 712,6519 C712,6517.34315 713.343146,6516 715,6516 C716.656854,6516 718,6517.34315 718,6519 C718,6520.65685 716.656854,6522 715,6522 Z M715,6618 C713.343146,6618 712,6616.65685 712,6615 C712,6613.34315 713.343146,6612 715,6612 C716.656854,6612 718,6613.34315 718,6615 C718,6616.65685 716.656854,6618 715,6618 Z M587,6586 C585.343146,6586 584,6584.65685 584,6583 C584,6581.34315 585.343146,6580 587,6580 C588.656854,6580 590,6581.34315 590,6583 C590,6584.65685 588.656854,6586 587,6586 Z M587,6682 C585.343146,6682 584,6680.65685 584,6679 C584,6677.34315 585.343146,6676 587,6676 C588.656854,6676 590,6677.34315 590,6679 C590,6680.65685 588.656854,6682 587,6682 Z M491,6586 C489.343146,6586 488,6584.65685 488,6583 C488,6581.34315 489.343146,6580 491,6580 C492.656854,6580 494,6581.34315 494,6583 C494,6584.65685 492.656854,6586 491,6586 Z M491,6682 C489.343146,6682 488,6680.65685 488,6679 C488,6677.34315 489.343146,6676 491,6676 C492.656854,6676 494,6677.34315 494,6679 C494,6680.65685 492.656854,6682 491,6682 Z M619,6586 C617.343146,6586 616,6584.65685 616,6583 C616,6581.34315 617.343146,6580 619,6580 C620.656854,6580 622,6581.34315 622,6583 C622,6584.65685 620.656854,6586 619,6586 Z M619,6682 C617.343146,6682 616,6680.65685 616,6679 C616,6677.34315 617.343146,6676 619,6676 C620.656854,6676 622,6677.34315 622,6679 C622,6680.65685 620.656854,6682 619,6682 Z M523,6586 C521.343146,6586 520,6584.65685 520,6583 C520,6581.34315 521.343146,6580 523,6580 C524.656854,6580 526,6581.34315 526,6583 C526,6584.65685 524.656854,6586 523,6586 Z M523,6682 C521.343146,6682 520,6680.65685 520,6679 C520,6677.34315 521.343146,6676 523,6676 C524.656854,6676 526,6677.34315 526,6679 C526,6680.65685 524.656854,6682 523,6682 Z M683,6586 C681.343146,6586 680,6584.65685 680,6583 C680,6581.34315 681.343146,6580 683,6580 C684.656854,6580 686,6581.34315 686,6583 C686,6584.65685 684.656854,6586 683,6586 Z M683,6682 C681.343146,6682 680,6680.65685 680,6679 C680,6677.34315 681.343146,6676 683,6676 C684.656854,6676 686,6677.34315 686,6679 C686,6680.65685 684.656854,6682 683,6682 Z M651,6586 C649.343146,6586 648,6584.65685 648,6583 C648,6581.34315 649.343146,6580 651,6580 C652.656854,6580 654,6581.34315 654,6583 C654,6584.65685 652.656854,6586 651,6586 Z M651,6682 C649.343146,6682 648,6680.65685 648,6679 C648,6677.34315 649.343146,6676 651,6676 C652.656854,6676 654,6677.34315 654,6679 C654,6680.65685 652.656854,6682 651,6682 Z M555,6586 C553.343146,6586 552,6584.65685 552,6583 C552,6581.34315 553.343146,6580 555,6580 C556.656854,6580 558,6581.34315 558,6583 C558,6584.65685 556.656854,6586 555,6586 Z M555,6682 C553.343146,6682 552,6680.65685 552,6679 C552,6677.34315 553.343146,6676 555,6676 C556.656854,6676 558,6677.34315 558,6679 C558,6680.65685 556.656854,6682 555,6682 Z M715,6586 C713.343146,6586 712,6584.65685 712,6583 C712,6581.34315 713.343146,6580 715,6580 C716.656854,6580 718,6581.34315 718,6583 C718,6584.65685 716.656854,6586 715,6586 Z M715,6682 C713.343146,6682 712,6680.65685 712,6679 C712,6677.34315 713.343146,6676 715,6676 C716.656854,6676 718,6677.34315 718,6679 C718,6680.65685 716.656854,6682 715,6682 Z M587,6490 C585.343146,6490 584,6488.65685 584,6487 C584,6485.34315 585.343146,6484 587,6484 C588.656854,6484 590,6485.34315 590,6487 C590,6488.65685 588.656854,6490 587,6490 Z M491,6490 C489.343146,6490 488,6488.65685 488,6487 C488,6485.34315 489.343146,6484 491,6484 C492.656854,6484 494,6485.34315 494,6487 C494,6488.65685 492.656854,6490 491,6490 Z M619,6490 C617.343146,6490 616,6488.65685 616,6487 C616,6485.34315 617.343146,6484 619,6484 C620.656854,6484 622,6485.34315 622,6487 C622,6488.65685 620.656854,6490 619,6490 Z M523,6490 C521.343146,6490 520,6488.65685 520,6487 C520,6485.34315 521.343146,6484 523,6484 C524.656854,6484 526,6485.34315 526,6487 C526,6488.65685 524.656854,6490 523,6490 Z M683,6490 C681.343146,6490 680,6488.65685 680,6487 C680,6485.34315 681.343146,6484 683,6484 C684.656854,6484 686,6485.34315 686,6487 C686,6488.65685 684.656854,6490 683,6490 Z M651,6490 C649.343146,6490 648,6488.65685 648,6487 C648,6485.34315 649.343146,6484 651,6484 C652.656854,6484 654,6485.34315 654,6487 C654,6488.65685 652.656854,6490 651,6490 Z M555,6490 C553.343146,6490 552,6488.65685 552,6487 C552,6485.34315 553.343146,6484 555,6484 C556.656854,6484 558,6485.34315 558,6487 C558,6488.65685 556.656854,6490 555,6490 Z M715,6490 C713.343146,6490 712,6488.65685 712,6487 C712,6485.34315 713.343146,6484 715,6484 C716.656854,6484 718,6485.34315 718,6487 C718,6488.65685 716.656854,6490 715,6490 Z M587,6554 C585.343146,6554 584,6552.65685 584,6551 C584,6549.34315 585.343146,6548 587,6548 C588.656854,6548 590,6549.34315 590,6551 C590,6552.65685 588.656854,6554 587,6554 Z M587,6650 C585.343146,6650 584,6648.65685 584,6647 C584,6645.34315 585.343146,6644 587,6644 C588.656854,6644 590,6645.34315 590,6647 C590,6648.65685 588.656854,6650 587,6650 Z M491,6554 C489.343146,6554 488,6552.65685 488,6551 C488,6549.34315 489.343146,6548 491,6548 C492.656854,6548 494,6549.34315 494,6551 C494,6552.65685 492.656854,6554 491,6554 Z M491,6650 C489.343146,6650 488,6648.65685 488,6647 C488,6645.34315 489.343146,6644 491,6644 C492.656854,6644 494,6645.34315 494,6647 C494,6648.65685 492.656854,6650 491,6650 Z M619,6554 C617.343146,6554 616,6552.65685 616,6551 C616,6549.34315 617.343146,6548 619,6548 C620.656854,6548 622,6549.34315 622,6551 C622,6552.65685 620.656854,6554 619,6554 Z M619,6650 C617.343146,6650 616,6648.65685 616,6647 C616,6645.34315 617.343146,6644 619,6644 C620.656854,6644 622,6645.34315 622,6647 C622,6648.65685 620.656854,6650 619,6650 Z M523,6554 C521.343146,6554 520,6552.65685 520,6551 C520,6549.34315 521.343146,6548 523,6548 C524.656854,6548 526,6549.34315 526,6551 C526,6552.65685 524.656854,6554 523,6554 Z M523,6650 C521.343146,6650 520,6648.65685 520,6647 C520,6645.34315 521.343146,6644 523,6644 C524.656854,6644 526,6645.34315 526,6647 C526,6648.65685 524.656854,6650 523,6650 Z M683,6554 C681.343146,6554 680,6552.65685 680,6551 C680,6549.34315 681.343146,6548 683,6548 C684.656854,6548 686,6549.34315 686,6551 C686,6552.65685 684.656854,6554 683,6554 Z M683,6650 C681.343146,6650 680,6648.65685 680,6647 C680,6645.34315 681.343146,6644 683,6644 C684.656854,6644 686,6645.34315 686,6647 C686,6648.65685 684.656854,6650 683,6650 Z M651,6554 C649.343146,6554 648,6552.65685 648,6551 C648,6549.34315 649.343146,6548 651,6548 C652.656854,6548 654,6549.34315 654,6551 C654,6552.65685 652.656854,6554 651,6554 Z M651,6650 C649.343146,6650 648,6648.65685 648,6647 C648,6645.34315 649.343146,6644 651,6644 C652.656854,6644 654,6645.34315 654,6647 C654,6648.65685 652.656854,6650 651,6650 Z M555,6554 C553.343146,6554 552,6552.65685 552,6551 C552,6549.34315 553.343146,6548 555,6548 C556.656854,6548 558,6549.34315 558,6551 C558,6552.65685 556.656854,6554 555,6554 Z M555,6650 C553.343146,6650 552,6648.65685 552,6647 C552,6645.34315 553.343146,6644 555,6644 C556.656854,6644 558,6645.34315 558,6647 C558,6648.65685 556.656854,6650 555,6650 Z M715,6554 C713.343146,6554 712,6552.65685 712,6551 C712,6549.34315 713.343146,6548 715,6548 C716.656854,6548 718,6549.34315 718,6551 C718,6552.65685 716.656854,6554 715,6554 Z M715,6650 C713.343146,6650 712,6648.65685 712,6647 C712,6645.34315 713.343146,6644 715,6644 C716.656854,6644 718,6645.34315 718,6647 C718,6648.65685 716.656854,6650 715,6650 Z" id="Combined-Shape" fill="#FFFFFF" fill-rule="nonzero" opacity="0.100000001"></path>
            <circle id="合并形状" stroke="url(#linearGradient-2)" stroke-width="160" opacity="0.140000001" fill-rule="nonzero" cx="750" cy="6522" r="626"></circle>
            <circle id="椭圆形-copy-9" fill="url(#linearGradient-3)" fill-rule="nonzero" opacity="0.600000024" style="mix-blend-mode: multiply;" transform="translate(201.500000, 5694.500000) scale(-1, 1) translate(-201.500000, -5694.500000) " cx="201.5" cy="5694.5" r="63.5"></circle>
        </g>
    </g>
</svg>